<svg xmlns="http://www.w3.org/2000/svg" width="38.979" height="46.878" viewBox="0 0 38.979 46.878">
  <g id="no-contacts-icon" transform="translate(-1043 -561)">
    <g id="contact-book" transform="translate(1050.719 561)">
      <path id="Path_64" data-name="Path 64" d="M24.96,0H4.979A4.23,4.23,0,0,0,.751,4.228V6.054H-1.236a.846.846,0,0,0-.846.846.846.846,0,0,0,.846.846H.742v5.547H-1.236a.845.845,0,0,0-.846.846.846.846,0,0,0,.846.846H.742v5.547H-1.236a.846.846,0,0,0-.846.846.845.845,0,0,0,.846.846H.742v5.547H-1.236a.846.846,0,0,0-.846.846.846.846,0,0,0,.846.846H.742v1.826A4.23,4.23,0,0,0,4.97,35.515H24.951a4.229,4.229,0,0,0,4.228-4.228V4.228A4.222,4.222,0,0,0,24.96,0ZM27.5,31.287a2.544,2.544,0,0,1-2.537,2.537H4.979a2.544,2.544,0,0,1-2.537-2.537V29.46H4.42a.846.846,0,0,0,0-1.691H2.442V22.222H4.42a.846.846,0,0,0,0-1.691H2.442V14.984H4.42a.846.846,0,0,0,0-1.691H2.442V7.746H4.42a.846.846,0,0,0,0-1.691H2.442V4.228A2.544,2.544,0,0,1,4.979,1.691H24.96A2.544,2.544,0,0,1,27.5,4.228Zm0,0" transform="translate(2.082)" fill="#a5bdd1"/>
      <path id="Path_65" data-name="Path 65" d="M193.394,145.827a4.1,4.1,0,1,0-4.1-4.1A4.1,4.1,0,0,0,193.394,145.827Zm0-6.52a2.41,2.41,0,1,1-2.41,2.41A2.41,2.41,0,0,1,193.394,139.308Zm0,0" transform="translate(-176.347 -128.315)" fill="#a5bdd1"/>
      <path id="Path_66" data-name="Path 66" d="M163.439,279a6.318,6.318,0,0,0-6.275,6.494.848.848,0,0,0,.846.846h10.858a.848.848,0,0,0,.846-.846A6.318,6.318,0,0,0,163.439,279Zm-4.516,5.649a4.555,4.555,0,0,1,9.031,0Zm0,0" transform="translate(-146.392 -260.126)" fill="#a5bdd1"/>
    </g>
    <path id="XMLID_63_" d="M16.249,41.483a.887.887,0,1,1-1.254,1.254l-.037-.037-.676.676a8.1,8.1,0,1,1-8-2.667.9.9,0,0,1-.01-.136.887.887,0,0,1,.887-.887H9.039a.887.887,0,0,1,.887.887.9.9,0,0,1-.01.136A8.073,8.073,0,0,1,13,42.154l.709-.708-.037-.037a.887.887,0,1,1,1.254-1.254l.656.656.008.008.008.008ZM8.1,42.276A6.326,6.326,0,1,0,14.426,48.6,6.333,6.333,0,0,0,8.1,42.276Zm1.878,5.44H8.986V45.19a.887.887,0,1,0-1.773,0V48.6a.887.887,0,0,0,.887.887H9.977a.887.887,0,0,0,0-1.773Z" transform="translate(1043 551.176)" fill="#a5bdd1"/>
  </g>
</svg>
