<svg xmlns="http://www.w3.org/2000/svg" width="41.946" height="42.128" viewBox="0 0 41.946 42.128">
  <g id="no-recordings-icon" transform="translate(-1042 -563.384)">
    <path id="XMLID_63_" d="M19.476,41.84a1.063,1.063,0,1,1-1.5,1.5l-.045-.045-.81.81a9.7,9.7,0,1,1-9.586-3.2,1.081,1.081,0,0,1-.012-.163,1.063,1.063,0,0,1,1.063-1.063h2.252A1.063,1.063,0,0,1,11.9,40.748a1.08,1.08,0,0,1-.012.163,9.676,9.676,0,0,1,3.692,1.733l.849-.849-.044-.044a1.063,1.063,0,1,1,1.5-1.5l.786.786.01.009.009.01Zm-9.768.951a7.583,7.583,0,1,0,7.583,7.583A7.591,7.591,0,0,0,9.708,42.791Zm2.251,6.52H10.771V46.283a1.063,1.063,0,1,0-2.125,0v4.09a1.063,1.063,0,0,0,1.063,1.063h2.251a1.063,1.063,0,1,0,0-2.125Z" transform="translate(1042 545.43)" fill="#a5bdd1"/>
    <g id="record-circular-button" transform="translate(1052.107 563.384)">
      <path id="Path_3" data-name="Path 3" d="M15.919,0A15.919,15.919,0,1,0,31.838,15.921,15.937,15.937,0,0,0,15.919,0Zm0,29.811A13.892,13.892,0,1,1,29.811,15.921,13.907,13.907,0,0,1,15.919,29.813Z" transform="translate(0 -0.002)" fill="#a5bdd1"/>
      <path id="Path_4" data-name="Path 4" d="M71.3,64.04A7.265,7.265,0,1,0,78.568,71.3,7.273,7.273,0,0,0,71.3,64.04Zm0,12.5A5.238,5.238,0,1,1,76.541,71.3,5.243,5.243,0,0,1,71.3,76.542Z" transform="translate(-55.385 -55.386)" fill="#a5bdd1"/>
    </g>
  </g>
</svg>
