<svg xmlns="http://www.w3.org/2000/svg" width="160.165" height="143.776" viewBox="0 0 160.165 143.776">
  <path id="no-scheduled-icon" d="M105.139,104.757a3.627,3.627,0,0,1-3.627,3.627H84.137a3.627,3.627,0,1,1,0-7.254h17.375A3.627,3.627,0,0,1,105.139,104.757ZM92.826,35.272a3.627,3.627,0,0,0,3.627-3.627V23.962a3.627,3.627,0,1,0-7.254,0v7.683A3.627,3.627,0,0,0,92.826,35.272ZM80.51,53.786a3.627,3.627,0,0,0,3.627,3.627h17.375a3.627,3.627,0,1,0,0-7.254H84.137A3.627,3.627,0,0,0,80.51,53.786Zm21,21.858H84.137a3.627,3.627,0,1,0,0,7.254h17.375a3.627,3.627,0,1,0,0-7.254Zm19.874-40.372a3.627,3.627,0,0,0,3.627-3.627V23.962a3.627,3.627,0,1,0-7.254,0v7.683A3.627,3.627,0,0,0,121.387,35.272Zm-3.1,22.141h17.376a3.627,3.627,0,0,0,0-7.254H118.291a3.627,3.627,0,0,0,0,7.254Zm0,25.485h17.376a3.627,3.627,0,0,0,0-7.254H118.291a3.627,3.627,0,0,0,0,7.254ZM107.106,35.272a3.627,3.627,0,0,0,3.627-3.627V23.962a3.627,3.627,0,0,0-7.254,0v7.683A3.627,3.627,0,0,0,107.106,35.272Zm11.185,73.112h17.376a3.627,3.627,0,0,0,0-7.254H118.291a3.627,3.627,0,0,0,0,7.254ZM67.359,75.644H49.983a3.627,3.627,0,0,0,0,7.254H67.359a3.627,3.627,0,1,0,0-7.254Zm14.813-44V23.962a3.627,3.627,0,1,0-7.254,0v7.683a3.627,3.627,0,1,0,7.254,0ZM67.359,50.159H49.983a3.627,3.627,0,0,0,0,7.254H67.359a3.627,3.627,0,1,0,0-7.254Zm89.179-25.485H139.294v-.712a3.627,3.627,0,0,0-7.254,0v7.683a3.627,3.627,0,0,0,7.243.283h13.628v94.687H83.864a3.627,3.627,0,0,0,0,7.254h72.674a3.627,3.627,0,0,0,3.627-3.627V28.3A3.627,3.627,0,0,0,156.538,24.674Zm-90.07,77.18a3.627,3.627,0,0,1-5.13,5.129l-.152-.152L58.422,109.6A33.118,33.118,0,1,1,25.705,98.685a3.69,3.69,0,0,1-.042-.558A3.627,3.627,0,0,1,29.29,94.5h7.684A3.627,3.627,0,0,1,40.6,98.127a3.685,3.685,0,0,1-.042.558,33.024,33.024,0,0,1,12.6,5.915l2.9-2.9-.152-.151a3.627,3.627,0,1,1,5.13-5.129l2.683,2.684.033.032.032.033ZM33.132,105.1a25.879,25.879,0,1,0,25.879,25.879A25.908,25.908,0,0,0,33.132,105.1ZM29.111,82.9a3.627,3.627,0,0,0,3.627-3.627V31.928h13.63a3.627,3.627,0,0,0,7.243-.283V23.962a3.627,3.627,0,1,0-7.254,0v.712H29.111A3.627,3.627,0,0,0,25.484,28.3v50.97A3.627,3.627,0,0,0,29.111,82.9Zm11.7,44.454H36.758V117.019a3.627,3.627,0,1,0-7.254,0v13.959a3.627,3.627,0,0,0,3.627,3.627h7.683a3.627,3.627,0,1,0,0-7.254Zm23.45-92.08a3.627,3.627,0,0,0,3.627-3.627V23.962a3.627,3.627,0,1,0-7.254,0v7.683A3.627,3.627,0,0,0,64.264,35.272Z" transform="translate(0 -20.335)" fill="#dbe3ef"/>
</svg>
