<svg xmlns="http://www.w3.org/2000/svg" width="41.788" height="37.512" viewBox="0 0 41.788 37.512">
  <path id="no-upcoming-icon" d="M27.432,42.361a.946.946,0,0,1-.946.946H21.952a.946.946,0,1,1,0-1.893h4.533A.946.946,0,0,1,27.432,42.361ZM24.219,24.232a.946.946,0,0,0,.946-.946v-2a.946.946,0,0,0-1.893,0v2A.946.946,0,0,0,24.219,24.232Zm-3.213,4.83a.946.946,0,0,0,.946.946h4.533a.946.946,0,1,0,0-1.893H21.952A.946.946,0,0,0,21.006,29.063Zm5.48,5.7H21.952a.946.946,0,1,0,0,1.893h4.533a.946.946,0,1,0,0-1.893Zm5.185-10.533a.946.946,0,0,0,.946-.946v-2a.946.946,0,0,0-1.893,0v2A.946.946,0,0,0,31.671,24.232Zm-.808,5.777H35.4a.946.946,0,0,0,0-1.893H30.863a.946.946,0,0,0,0,1.893Zm0,6.649H35.4a.946.946,0,0,0,0-1.893H30.863a.946.946,0,0,0,0,1.893ZM27.945,24.232a.946.946,0,0,0,.946-.946v-2a.946.946,0,0,0-1.893,0v2A.946.946,0,0,0,27.945,24.232Zm2.918,19.075H35.4a.946.946,0,1,0,0-1.893H30.863a.946.946,0,1,0,0,1.893ZM17.574,34.766H13.041a.946.946,0,0,0,0,1.893h4.533a.946.946,0,1,0,0-1.893Zm3.865-11.48v-2a.946.946,0,1,0-1.893,0v2a.946.946,0,1,0,1.893,0Zm-3.865,4.83H13.041a.946.946,0,1,0,0,1.893h4.533a.946.946,0,1,0,0-1.893Zm23.268-6.649h-4.5v-.186a.946.946,0,0,0-1.893,0v2a.946.946,0,0,0,1.89.074H39.9v24.7H21.881a.946.946,0,0,0,0,1.893H40.842a.946.946,0,0,0,.946-.946v-26.6A.946.946,0,0,0,40.842,21.467ZM17.342,41.6A.946.946,0,1,1,16,42.942l-.04-.04-.721.721a8.641,8.641,0,1,1-8.536-2.847.963.963,0,0,1-.011-.146.946.946,0,0,1,.946-.946h2a.946.946,0,0,1,.946.946.962.962,0,0,1-.011.146A8.616,8.616,0,0,1,13.87,42.32l.756-.756-.04-.039a.946.946,0,0,1,1.338-1.338l.7.7.009.008.008.009Zm-8.7.847A6.752,6.752,0,1,0,15.4,49.2,6.76,6.76,0,0,0,8.644,42.451ZM7.6,36.658a.946.946,0,0,0,.946-.946V23.36H12.1a.946.946,0,0,0,1.89-.074v-2a.946.946,0,0,0-1.893,0v.186H7.6a.946.946,0,0,0-.946.946v13.3A.946.946,0,0,0,7.6,36.658Zm3.053,11.6H9.591v-2.7a.946.946,0,1,0-1.893,0V49.2a.946.946,0,0,0,.946.946h2a.946.946,0,1,0,0-1.893Zm6.118-24.024a.946.946,0,0,0,.946-.946v-2a.946.946,0,0,0-1.893,0v2A.946.946,0,0,0,16.767,24.232Z" transform="translate(0 -20.335)" fill="#a5bdd1"/>
</svg>
