<?xml version="1.0" encoding="UTF-8"?>
<svg width="542px" height="542px" viewBox="0 0 542 542" version="1.1" xmlns="http://www.w3.org/2000/svg" xmlns:xlink="http://www.w3.org/1999/xlink">
    <title>live-statistics-graph copy</title>
    <defs>
        <rect id="path-1" x="0" y="0" width="542" height="542"></rect>
        <polygon id="path-3" points="0 0.421800948 540.046847 0.421800948 540.046847 454.421801 0 454.421801"></polygon>
        <linearGradient x1="50%" y1="-94.9685243%" x2="50%" y2="100%" id="linearGradient-5">
            <stop stop-color="#5E81F4" offset="0%"></stop>
            <stop stop-color="#FFFFFF" offset="100%"></stop>
        </linearGradient>
        <circle id="path-6" cx="20" cy="20" r="20"></circle>
        <filter x="-50.0%" y="-40.0%" width="200.0%" height="200.0%" filterUnits="objectBoundingBox" id="filter-7">
            <feOffset dx="0" dy="4" in="SourceAlpha" result="shadowOffsetOuter1"></feOffset>
            <feGaussianBlur stdDeviation="6" in="shadowOffsetOuter1" result="shadowBlurOuter1"></feGaussianBlur>
            <feColorMatrix values="0 0 0 0 0   0 0 0 0 0   0 0 0 0 0  0 0 0 0.127122962 0" type="matrix" in="shadowBlurOuter1"></feColorMatrix>
        </filter>
        <path d="M188.605405,0.559241706 C190.814544,0.559241706 192.605405,2.35010271 192.605405,4.55924171 L192.605405,132.559242 C192.605405,134.768381 190.814544,136.559242 188.605405,136.559242 L62.6054054,136.559242 C60.3962664,136.559242 58.6054054,134.768381 58.6054054,132.559242 L58.6053778,60.8722417 L50.0441257,45.2751407 C49.7151285,44.6757556 49.7151285,43.9498368 50.0441257,43.3504517 L58.6053778,27.7522417 L58.6054054,4.55924171 C58.6054054,2.35010271 60.3962664,0.559241706 62.6054054,0.559241706 L188.605405,0.559241706 Z" id="path-8"></path>
        <filter x="-84.0%" y="-66.2%" width="268.1%" height="276.5%" filterUnits="objectBoundingBox" id="filter-9">
            <feOffset dx="0" dy="30" in="SourceAlpha" result="shadowOffsetOuter1"></feOffset>
            <feGaussianBlur stdDeviation="35" in="shadowOffsetOuter1" result="shadowBlurOuter1"></feGaussianBlur>
            <feColorMatrix values="0 0 0 0 0.597047601   0 0 0 0 0.663834386   0 0 0 0 0.735756803  0 0 0 0.2 0" type="matrix" in="shadowBlurOuter1"></feColorMatrix>
        </filter>
    </defs>
    <g id="Admin" stroke="none" stroke-width="1" fill="none" fill-rule="evenodd">
        <g id="Group-3">
            <mask id="mask-2" fill="white">
                <use xlink:href="#path-1"></use>
            </mask>
            <g id="Mask" fill-rule="nonzero"></g>
            <g mask="url(#mask-2)">
                <g transform="translate(0.000000, 0.241706)">
                    <g id="Lines" stroke-width="1" fill="none" fill-rule="evenodd" transform="translate(0.000000, 19.014218)" stroke-linecap="square">
                        <line x1="271" y1="167.175492" x2="271" y2="708.198916" id="Line" stroke="#EEEEEE" stroke-width="2" fill-rule="nonzero" transform="translate(271.000000, 437.687204) rotate(-90.000000) translate(-271.000000, -437.687204) "></line>
                        <line x1="-186.616575" y1="218.843602" x2="251.070629" y2="218.843602" stroke="#EEEEEE" stroke-width="2" stroke-dasharray="8,8" transform="translate(32.227027, 218.843602) rotate(-90.000000) translate(-32.227027, -218.843602) "></line>
                        <line x1="198.154596" y1="218.843602" x2="635.8418" y2="218.843602" stroke="#EEEEEE" stroke-width="2" stroke-dasharray="8,8" transform="translate(416.998198, 218.843602) rotate(-90.000000) translate(-416.998198, -218.843602) "></line>
                        <line x1="-90.9120704" y1="218.843602" x2="346.775133" y2="218.843602" stroke="#EEEEEE" stroke-width="2" stroke-dasharray="8,8" transform="translate(127.931532, 218.843602) rotate(-90.000000) translate(-127.931532, -218.843602) "></line>
                        <line x1="293.859101" y1="218.843602" x2="731.546305" y2="218.843602" stroke="#EEEEEE" stroke-width="2" stroke-dasharray="8,8" transform="translate(512.702703, 218.843602) rotate(-90.000000) translate(-512.702703, -218.843602) "></line>
                        <line x1="5.76901072" y1="218.843602" x2="443.456215" y2="218.843602" stroke="#EEEEEE" stroke-width="2" stroke-dasharray="8,8" transform="translate(224.612613, 218.843602) rotate(-90.000000) translate(-224.612613, -218.843602) "></line>
                        <line x1="101.473515" y1="218.843602" x2="539.160719" y2="218.843602" stroke="#EEEEEE" stroke-width="2" stroke-dasharray="8,8" transform="translate(320.317117, 218.843602) rotate(-90.000000) translate(-320.317117, -218.843602) "></line>
                    </g>
                    <g id="Graph" stroke-width="1" fill="none" fill-rule="evenodd" transform="translate(0.976577, 0.000000)">
                        <mask id="mask-4" fill="white">
                            <use xlink:href="#path-3"></use>
                        </mask>
                        <g id="Mask" fill-rule="nonzero"></g>
                        <path d="M-306.645045,236.092951 C-284.509239,276.531915 -267.538942,288.596239 -255.734153,272.285922 C-238.02697,247.820448 -232.636302,169.756606 -184.190468,169.756606 C-135.744633,169.756606 -69.6924992,323.627516 -31.7955314,323.627516 C6.10143641,323.627516 45.5335823,175.706281 102.006205,249.174512 C158.478828,322.642742 147.951892,370.065757 192.796638,370.065757 C237.641383,370.065757 276.678769,78.6650266 327.528253,80.0703809 C365.442766,80.0703809 379.996254,356.72002 392.63735,399.639746 C405.278445,442.559472 440.600699,323.627516 503.016655,323.627516 C558.107617,323.627516 610.351921,94.6470852 663.841912,94.6470852 C717.331903,94.6470852 739.061252,337.475898 786.5158,337.475898 C833.970348,337.475898 833.268552,249.174512 870.972527,249.174512 C871.1509,350.445548 871.1509,427.813572 870.972527,481.278584 L-306.645045,481.278584 L-306.645045,236.092951 Z" id="Path-3-Copy-3" fill="url(#linearGradient-5)" fill-rule="nonzero" opacity="0.15" mask="url(#mask-4)" transform="translate(282.230631, 280.671949) scale(-1, 1) translate(-282.230631, -280.671949) "></path>
                        <path d="M-306.645045,235.785329 C-284.506724,276.144565 -267.534499,288.185103 -255.72837,271.906944 C-238.019175,247.489705 -232.627895,169.579772 -184.176557,169.579772 C-135.725219,169.579772 -69.6655809,323.147313 -31.7643079,323.147313 C6.13696506,323.147313 45.5735905,175.517717 102.052629,248.841099 C158.531667,322.164481 148.003536,369.493997 192.853375,369.493997 C237.703215,369.493997 276.745036,78.6677874 327.600297,80.070371 C365.519117,80.070371 380.074258,356.174572 392.716789,399.009679 C405.359321,441.844785 440.685588,323.147313 503.108634,323.147313 C558.205855,323.147313 610.456093,94.618336 663.952161,94.618336 C717.448229,94.618336 739.180047,336.968392 786.639986,336.968392 C834.099924,336.968392 833.398049,248.841099 871.106306,248.841099" id="Path-3-Copy-2" stroke="#5E81F4" stroke-width="4" fill-rule="nonzero" mask="url(#mask-4)" transform="translate(282.230631, 244.198015) scale(-1, 1) translate(-282.230631, -244.198015) "></path>
                    </g>
                    <g id="Pin" stroke-width="1" fill="none" fill-rule="evenodd" transform="translate(205.394595, 41.199052)">
                        <g id="pin" transform="translate(0.605405, 26.559242)" fill-rule="nonzero">
                            <g id="Oval">
                                <use fill="black" fill-opacity="1" filter="url(#filter-7)" xlink:href="#path-6"></use>
                                <use fill="#FFFFFF" xlink:href="#path-6"></use>
                            </g>
                            <circle id="Oval-Copy-2" fill="#5E81F4" opacity="0.544921875" cx="20" cy="20" r="20"></circle>
                            <circle id="Oval-Copy" fill="#5E81F4" cx="20" cy="20" r="11.1111111"></circle>
                        </g>
                        <g id="bg" fill-rule="nonzero">
                            <use fill="black" fill-opacity="1" filter="url(#filter-9)" xlink:href="#path-8"></use>
                            <use fill="#FFFFFF" xlink:href="#path-8"></use>
                        </g>
                        <path d="M81.8593694,51.8933649 L86.9693694,36.5913649 C87.016036,36.4513649 87.0603694,36.2950316 87.1023694,36.1223649 C87.1443694,35.9496983 87.1887027,35.7700316 87.2353694,35.5833649 C87.3193694,35.9660316 87.4127027,36.3020316 87.5153694,36.5913649 L87.5153694,36.5913649 L92.5973694,51.8933649 L95.0333694,51.8933649 L101.291369,31.8313649 L99.1773694,31.8313649 C98.944036,31.8313649 98.7457027,31.8966983 98.5823694,32.0273649 C98.419036,32.1580316 98.314036,32.3073649 98.2673694,32.4753649 L98.2673694,32.4753649 L94.1093694,46.4193649 C94.0347027,46.6620316 93.974036,46.9233649 93.9273694,47.2033649 C93.8807027,47.4833649 93.8293694,47.7773649 93.7733694,48.0853649 C93.6427027,47.4600316 93.4933694,46.9046983 93.3253694,46.4193649 L93.3253694,46.4193649 L88.6353694,32.4753649 C88.570036,32.2886983 88.4603694,32.1346983 88.3063694,32.0133649 C88.1523694,31.8920316 87.954036,31.8313649 87.7113694,31.8313649 L87.7113694,31.8313649 L86.9273694,31.8313649 C86.694036,31.8313649 86.4957027,31.8990316 86.3323694,32.0343649 C86.169036,32.1696983 86.0593694,32.3166983 86.0033694,32.4753649 L86.0033694,32.4753649 L81.2853694,46.4193649 C81.2013694,46.6620316 81.1267027,46.9303649 81.0613694,47.2243649 C80.996036,47.5183649 80.9307027,47.8240316 80.8653694,48.1413649 C80.8093694,47.8240316 80.751036,47.5206983 80.6903694,47.2313649 C80.6297027,46.9420316 80.562036,46.6713649 80.4873694,46.4193649 L80.4873694,46.4193649 L76.3433694,32.4753649 C76.2873694,32.2886983 76.180036,32.1346983 76.0213694,32.0133649 C75.8627027,31.8920316 75.662036,31.8313649 75.4193694,31.8313649 L75.4193694,31.8313649 L73.1653694,31.8313649 L79.4233694,51.8933649 L81.8593694,51.8933649 Z M108.851369,52.0893649 C109.364703,52.0893649 109.882703,52.0450316 110.405369,51.9563649 C110.928036,51.8676983 111.434369,51.7346983 111.924369,51.5573649 C112.414369,51.3800316 112.874036,51.1536983 113.303369,50.8783649 C113.732703,50.6030316 114.101369,50.2786983 114.409369,49.9053649 L114.409369,49.9053649 L113.709369,48.9953649 C113.597369,48.8366983 113.438703,48.7573649 113.233369,48.7573649 C113.074703,48.7573649 112.885703,48.8296983 112.666369,48.9743649 C112.447036,49.1190316 112.174036,49.2753649 111.847369,49.4433649 C111.520703,49.6113649 111.131036,49.7676983 110.678369,49.9123649 C110.225703,50.0570316 109.686703,50.1293649 109.061369,50.1293649 C108.389369,50.1293649 107.782703,50.0196983 107.241369,49.8003649 C106.700036,49.5810316 106.233369,49.2496983 105.841369,48.8063649 C105.449369,48.3630316 105.141369,47.8100316 104.917369,47.1473649 C104.693369,46.4846983 104.572036,45.7053649 104.553369,44.8093649 L104.553369,44.8093649 L113.989369,44.8093649 C114.222703,44.8093649 114.381369,44.7440316 114.465369,44.6133649 C114.549369,44.4826983 114.591369,44.2213649 114.591369,43.8293649 C114.591369,42.8213649 114.444369,41.9230316 114.150369,41.1343649 C113.856369,40.3456983 113.448036,39.6830316 112.925369,39.1463649 C112.402703,38.6096983 111.782036,38.1990316 111.063369,37.9143649 C110.344703,37.6296983 109.560703,37.4873649 108.711369,37.4873649 C107.684703,37.4873649 106.760703,37.6670316 105.939369,38.0263649 C105.118036,38.3856983 104.422703,38.8803649 103.853369,39.5103649 C103.284036,40.1403649 102.847703,40.8846983 102.544369,41.7433649 C102.241036,42.6020316 102.089369,43.5260316 102.089369,44.5153649 C102.089369,45.7380316 102.257369,46.8206983 102.593369,47.7633649 C102.929369,48.7060316 103.398369,49.4970316 104.000369,50.1363649 C104.602369,50.7756983 105.316369,51.2610316 106.142369,51.5923649 C106.968369,51.9236983 107.871369,52.0893649 108.851369,52.0893649 Z M112.351369,43.2553649 L104.637369,43.2553649 C104.805369,42.0233649 105.234703,41.0596983 105.925369,40.3643649 C106.616036,39.6690316 107.563369,39.3213649 108.767369,39.3213649 C109.336703,39.3213649 109.843036,39.4170316 110.286369,39.6083649 C110.729703,39.7996983 111.105369,40.0703649 111.413369,40.4203649 C111.721369,40.7703649 111.954703,41.1856983 112.113369,41.6663649 C112.272036,42.1470316 112.351369,42.6766983 112.351369,43.2553649 L112.351369,43.2553649 Z M122.095369,52.0893649 C123.103369,52.0893649 123.997036,51.8676983 124.776369,51.4243649 C125.555703,50.9810316 126.248703,50.3906983 126.855369,49.6533649 L126.855369,49.6533649 L127.079369,51.3753649 C127.172703,51.7206983 127.396703,51.8933649 127.751369,51.8933649 L127.751369,51.8933649 L129.235369,51.8933649 L129.235369,31.2713649 L126.743369,31.2713649 L126.743369,39.1393649 C126.258036,38.6073649 125.707369,38.1943649 125.091369,37.9003649 C124.475369,37.6063649 123.733369,37.4593649 122.865369,37.4593649 C121.904036,37.4593649 121.045369,37.6483649 120.289369,38.0263649 C119.533369,38.4043649 118.891703,38.9246983 118.364369,39.5873649 C117.837036,40.2500316 117.433369,41.0316983 117.153369,41.9323649 C116.873369,42.8330316 116.733369,43.8060316 116.733369,44.8513649 C116.733369,46.0273649 116.859369,47.0680316 117.111369,47.9733649 C117.363369,48.8786983 117.722703,49.6346983 118.189369,50.2413649 C118.656036,50.8480316 119.220703,51.3076983 119.883369,51.6203649 C120.546036,51.9330316 121.283369,52.0893649 122.095369,52.0893649 Z M122.921369,50.0733649 C122.342703,50.0733649 121.829369,49.9753649 121.381369,49.7793649 C120.933369,49.5833649 120.555369,49.2730316 120.247369,48.8483649 C119.939369,48.4236983 119.706036,47.8823649 119.547369,47.2243649 C119.388703,46.5663649 119.309369,45.7753649 119.309369,44.8513649 C119.309369,43.1060316 119.664036,41.7620316 120.373369,40.8193649 C121.082703,39.8766983 122.100036,39.4053649 123.425369,39.4053649 C124.088036,39.4053649 124.692369,39.5290316 125.238369,39.7763649 C125.784369,40.0236983 126.286036,40.4553649 126.743369,41.0713649 L126.743369,41.0713649 L126.743369,47.9313649 C126.230036,48.6126983 125.667703,49.1400316 125.056369,49.5133649 C124.445036,49.8866983 123.733369,50.0733649 122.921369,50.0733649 Z" id="Wed" fill="#8181A5" fill-rule="nonzero"></path>
                        <path d="M87.9353694,102.045024 L87.9353694,99.4550237 L84.2953694,99.4550237 L84.2953694,81.7730237 L81.4533694,81.7730237 L75.2793694,87.0230237 L76.3713694,88.5210237 C76.446036,88.6236904 76.5603694,88.7146904 76.7143694,88.7940237 C76.8683694,88.873357 77.0387027,88.9130237 77.2253694,88.9130237 C77.3467027,88.9130237 77.4703694,88.894357 77.5963694,88.8570237 C77.7223694,88.8196904 77.846036,88.7496904 77.9673694,88.6470237 L77.9673694,88.6470237 L80.8793694,86.2110237 C80.8513694,86.7150237 80.8373694,87.1956904 80.8373694,87.6530237 L80.8373694,87.6530237 L80.8373694,99.4550237 L76.7353694,99.4550237 L76.7353694,102.045024 L87.9353694,102.045024 Z M104.273369,102.045024 L104.273369,99.9730237 C104.273369,99.6276904 104.163703,99.3500237 103.944369,99.1400237 C103.725036,98.9300237 103.428703,98.8250237 103.055369,98.8250237 L103.055369,98.8250237 L97.8613694,98.8250237 C97.4693694,98.8250237 97.0587027,98.8600237 96.6293694,98.9300237 C96.200036,99.0000237 95.7613694,99.100357 95.3133694,99.2310237 L95.3133694,99.2310237 L99.8773694,94.5690237 C100.418703,94.0090237 100.936703,93.458357 101.431369,92.9170237 C101.926036,92.3756904 102.357703,91.8156904 102.726369,91.2370237 C103.095036,90.658357 103.389036,90.0516904 103.608369,89.4170237 C103.827703,88.782357 103.937369,88.0916904 103.937369,87.3450237 C103.937369,86.4770237 103.783369,85.688357 103.475369,84.9790237 C103.167369,84.2696904 102.738036,83.6630237 102.187369,83.1590237 C101.636703,82.6550237 100.974036,82.265357 100.199369,81.9900237 C99.4247027,81.7146904 98.5707027,81.5770237 97.6373694,81.5770237 C96.7413694,81.5770237 95.9037027,81.7006904 95.1243694,81.9480237 C94.345036,82.195357 93.6543694,82.5640237 93.0523694,83.0540237 C92.4503694,83.5440237 91.9487027,84.155357 91.5473694,84.8880237 C91.146036,85.6206904 90.8753694,86.472357 90.7353694,87.4430237 L90.7353694,87.4430237 L92.5553694,87.7650237 C92.7233694,87.7930237 92.8773694,87.8070237 93.0173694,87.8070237 C93.3347027,87.8070237 93.596036,87.7300237 93.8013694,87.5760237 C94.0067027,87.4220237 94.1607027,87.1676904 94.2633694,86.8130237 C94.478036,86.1036904 94.8537027,85.5390237 95.3903694,85.1190237 C95.927036,84.6990237 96.6107027,84.4890237 97.4413694,84.4890237 C97.8893694,84.4890237 98.293036,84.5520237 98.6523694,84.6780237 C99.0117027,84.8040237 99.322036,84.9930237 99.5833694,85.2450237 C99.8447027,85.4970237 100.045369,85.807357 100.185369,86.1760237 C100.325369,86.5446904 100.395369,86.9716904 100.395369,87.4570237 C100.395369,87.9890237 100.323036,88.495357 100.178369,88.9760237 C100.033703,89.4566904 99.8237027,89.930357 99.5483694,90.3970237 C99.273036,90.8636904 98.9323694,91.3350237 98.5263694,91.8110237 C98.1203694,92.2870237 97.6607027,92.786357 97.1473694,93.3090237 L97.1473694,93.3090237 L91.0013694,99.4690237 C90.7867027,99.6836904 90.6303694,99.9170237 90.5323694,100.169024 C90.4343694,100.421024 90.3853694,100.66369 90.3853694,100.897024 L90.3853694,100.897024 L90.3853694,102.045024 L104.273369,102.045024 Z M112.449369,102.269024 C113.532036,102.269024 114.533036,102.096357 115.452369,101.751024 C116.371703,101.40569 117.167369,100.918024 117.839369,100.288024 C118.511369,99.6580237 119.036369,98.8996904 119.414369,98.0130237 C119.792369,97.126357 119.981369,96.146357 119.981369,95.0730237 C119.981369,94.2050237 119.841369,93.395357 119.561369,92.6440237 C119.281369,91.8926904 118.866036,91.2370237 118.315369,90.6770237 C117.764703,90.1170237 117.085703,89.678357 116.278369,89.3610237 C115.471036,89.0436904 114.535369,88.8850237 113.471369,88.8850237 C112.715369,88.8850237 111.880036,88.978357 110.965369,89.1650237 L110.965369,89.1650237 L111.693369,84.9370237 L117.265369,84.9370237 C117.993369,84.9370237 118.513703,84.7830237 118.826369,84.4750237 C119.139036,84.1670237 119.295369,83.7656904 119.295369,83.2710237 L119.295369,83.2710237 L119.295369,81.8010237 L109.299369,81.8010237 L107.619369,91.6290237 L109.775369,92.2450237 C110.764703,91.890357 111.749369,91.7130237 112.729369,91.7130237 C113.970703,91.7130237 114.911036,92.023357 115.550369,92.6440237 C116.189703,93.2646904 116.509369,94.1256904 116.509369,95.2270237 C116.509369,95.824357 116.427703,96.377357 116.264369,96.8860237 C116.101036,97.3946904 115.858369,97.833357 115.536369,98.2020237 C115.214369,98.5706904 114.810703,98.8576904 114.325369,99.0630237 C113.840036,99.268357 113.280036,99.3710237 112.645369,99.3710237 C112.048036,99.3710237 111.539369,99.296357 111.119369,99.1470237 C110.699369,98.9976904 110.330703,98.834357 110.013369,98.6570237 C109.696036,98.4796904 109.418369,98.316357 109.180369,98.1670237 C108.942369,98.0176904 108.706703,97.9430237 108.473369,97.9430237 C108.100036,97.9430237 107.801369,98.1016904 107.577369,98.4190237 L107.577369,98.4190237 L106.513369,99.8890237 C106.849369,100.206357 107.229703,100.507357 107.654369,100.792024 C108.079036,101.07669 108.541036,101.32869 109.040369,101.548024 C109.539703,101.767357 110.074036,101.942357 110.643369,102.073024 C111.212703,102.20369 111.814703,102.269024 112.449369,102.269024 Z M136.655369,102.045024 L136.655369,99.4550237 L133.015369,99.4550237 L133.015369,81.7730237 L130.173369,81.7730237 L123.999369,87.0230237 L125.091369,88.5210237 C125.166036,88.6236904 125.280369,88.7146904 125.434369,88.7940237 C125.588369,88.873357 125.758703,88.9130237 125.945369,88.9130237 C126.066703,88.9130237 126.190369,88.894357 126.316369,88.8570237 C126.442369,88.8196904 126.566036,88.7496904 126.687369,88.6470237 L126.687369,88.6470237 L129.599369,86.2110237 C129.571369,86.7150237 129.557369,87.1956904 129.557369,87.6530237 L129.557369,87.6530237 L129.557369,99.4550237 L125.455369,99.4550237 L125.455369,102.045024 L136.655369,102.045024 Z M152.993369,102.045024 L152.993369,99.9730237 C152.993369,99.6276904 152.883703,99.3500237 152.664369,99.1400237 C152.445036,98.9300237 152.148703,98.8250237 151.775369,98.8250237 L151.775369,98.8250237 L146.581369,98.8250237 C146.189369,98.8250237 145.778703,98.8600237 145.349369,98.9300237 C144.920036,99.0000237 144.481369,99.100357 144.033369,99.2310237 L144.033369,99.2310237 L148.597369,94.5690237 C149.138703,94.0090237 149.656703,93.458357 150.151369,92.9170237 C150.646036,92.3756904 151.077703,91.8156904 151.446369,91.2370237 C151.815036,90.658357 152.109036,90.0516904 152.328369,89.4170237 C152.547703,88.782357 152.657369,88.0916904 152.657369,87.3450237 C152.657369,86.4770237 152.503369,85.688357 152.195369,84.9790237 C151.887369,84.2696904 151.458036,83.6630237 150.907369,83.1590237 C150.356703,82.6550237 149.694036,82.265357 148.919369,81.9900237 C148.144703,81.7146904 147.290703,81.5770237 146.357369,81.5770237 C145.461369,81.5770237 144.623703,81.7006904 143.844369,81.9480237 C143.065036,82.195357 142.374369,82.5640237 141.772369,83.0540237 C141.170369,83.5440237 140.668703,84.155357 140.267369,84.8880237 C139.866036,85.6206904 139.595369,86.472357 139.455369,87.4430237 L139.455369,87.4430237 L141.275369,87.7650237 C141.443369,87.7930237 141.597369,87.8070237 141.737369,87.8070237 C142.054703,87.8070237 142.316036,87.7300237 142.521369,87.5760237 C142.726703,87.4220237 142.880703,87.1676904 142.983369,86.8130237 C143.198036,86.1036904 143.573703,85.5390237 144.110369,85.1190237 C144.647036,84.6990237 145.330703,84.4890237 146.161369,84.4890237 C146.609369,84.4890237 147.013036,84.5520237 147.372369,84.6780237 C147.731703,84.8040237 148.042036,84.9930237 148.303369,85.2450237 C148.564703,85.4970237 148.765369,85.807357 148.905369,86.1760237 C149.045369,86.5446904 149.115369,86.9716904 149.115369,87.4570237 C149.115369,87.9890237 149.043036,88.495357 148.898369,88.9760237 C148.753703,89.4566904 148.543703,89.930357 148.268369,90.3970237 C147.993036,90.8636904 147.652369,91.3350237 147.246369,91.8110237 C146.840369,92.2870237 146.380703,92.786357 145.867369,93.3090237 L145.867369,93.3090237 L139.721369,99.4690237 C139.506703,99.6836904 139.350369,99.9170237 139.252369,100.169024 C139.154369,100.421024 139.105369,100.66369 139.105369,100.897024 L139.105369,100.897024 L139.105369,102.045024 L152.993369,102.045024 Z" id="12512" fill="#1C1D21" fill-rule="nonzero"></path>
                    </g>
                    <path d="M15.667027,526.971564 L15.667027,516.441564 C15.667027,516.301564 15.662027,516.148231 15.652027,515.981564 C15.642027,515.814897 15.627027,515.644897 15.607027,515.471564 L15.607027,515.471564 L20.627027,524.461564 C20.7936937,524.761564 21.027027,524.911564 21.327027,524.911564 L21.327027,524.911564 L21.607027,524.911564 C21.907027,524.911564 22.1403604,524.761564 22.307027,524.461564 L22.307027,524.461564 L27.217027,515.501564 C27.2036937,515.668231 27.1936937,515.831564 27.187027,515.991564 C27.1803604,516.151564 27.177027,516.301564 27.177027,516.441564 L27.177027,516.441564 L27.177027,526.971564 L28.877027,526.971564 L28.877027,512.641564 L27.447027,512.641564 C27.2736937,512.641564 27.1403604,512.658231 27.047027,512.691564 C26.9536937,512.724897 26.8636937,512.818231 26.777027,512.971564 L26.777027,512.971564 L21.927027,521.781564 C21.8336937,521.954897 21.7503604,522.126564 21.677027,522.296564 C21.6036937,522.466564 21.5336937,522.644897 21.467027,522.831564 C21.4003604,522.651564 21.332027,522.473231 21.262027,522.296564 C21.192027,522.119897 21.1103604,521.951564 21.017027,521.791564 L21.017027,521.791564 L16.067027,512.971564 C15.9803604,512.818231 15.8903604,512.724897 15.797027,512.691564 C15.7036937,512.658231 15.5703604,512.641564 15.397027,512.641564 L15.397027,512.641564 L13.967027,512.641564 L13.967027,526.971564 L15.667027,526.971564 Z M36.187027,527.111564 C36.927027,527.111564 37.5953604,526.989897 38.192027,526.746564 C38.7886937,526.503231 39.2953604,526.154897 39.712027,525.701564 C40.1286937,525.248231 40.4486937,524.701564 40.672027,524.061564 C40.8953604,523.421564 41.007027,522.701564 41.007027,521.901564 C41.007027,521.108231 40.8953604,520.389897 40.672027,519.746564 C40.4486937,519.103231 40.1286937,518.554897 39.712027,518.101564 C39.2953604,517.648231 38.7886937,517.298231 38.192027,517.051564 C37.5953604,516.804897 36.927027,516.681564 36.187027,516.681564 C35.447027,516.681564 34.7786937,516.804897 34.182027,517.051564 C33.5853604,517.298231 33.077027,517.648231 32.657027,518.101564 C32.237027,518.554897 31.9136937,519.103231 31.687027,519.746564 C31.4603604,520.389897 31.347027,521.108231 31.347027,521.901564 C31.347027,522.701564 31.4603604,523.421564 31.687027,524.061564 C31.9136937,524.701564 32.237027,525.248231 32.657027,525.701564 C33.077027,526.154897 33.5853604,526.503231 34.182027,526.746564 C34.7786937,526.989897 35.447027,527.111564 36.187027,527.111564 Z M36.187027,525.721564 C35.6803604,525.721564 35.2403604,525.634897 34.867027,525.461564 C34.4936937,525.288231 34.182027,525.039897 33.932027,524.716564 C33.682027,524.393231 33.4953604,523.994897 33.372027,523.521564 C33.2486937,523.048231 33.187027,522.511564 33.187027,521.911564 C33.187027,521.311564 33.2486937,520.773231 33.372027,520.296564 C33.4953604,519.819897 33.682027,519.418231 33.932027,519.091564 C34.182027,518.764897 34.4936937,518.514897 34.867027,518.341564 C35.2403604,518.168231 35.6803604,518.081564 36.187027,518.081564 C37.187027,518.081564 37.9336937,518.418231 38.427027,519.091564 C38.9203604,519.764897 39.167027,520.704897 39.167027,521.911564 C39.167027,523.111564 38.9203604,524.046564 38.427027,524.716564 C37.9336937,525.386564 37.187027,525.721564 36.187027,525.721564 Z M44.987027,526.971564 L44.987027,519.511564 C45.3736937,519.078231 45.7953604,518.734897 46.252027,518.481564 C46.7086937,518.228231 47.2003604,518.101564 47.727027,518.101564 C48.447027,518.101564 48.982027,518.313231 49.332027,518.736564 C49.682027,519.159897 49.857027,519.754897 49.857027,520.521564 L49.857027,520.521564 L49.857027,526.971564 L51.637027,526.971564 L51.637027,520.521564 C51.637027,519.948231 51.5636937,519.424897 51.417027,518.951564 C51.2703604,518.478231 51.0553604,518.073231 50.772027,517.736564 C50.4886937,517.399897 50.1353604,517.139897 49.712027,516.956564 C49.2886937,516.773231 48.8003604,516.681564 48.247027,516.681564 C47.5336937,516.681564 46.9053604,516.831564 46.362027,517.131564 C45.8186937,517.431564 45.327027,517.824897 44.887027,518.311564 L44.887027,518.311564 L44.747027,517.211564 C44.6803604,516.964897 44.5203604,516.841564 44.267027,516.841564 L44.267027,516.841564 L43.207027,516.841564 L43.207027,526.971564 L44.987027,526.971564 Z" id="Mon" fill="#8181A5" fill-rule="nonzero"></path>
                    <path d="M113.082613,526.971564 L113.082613,514.271564 L117.712613,514.271564 L117.712613,512.641564 L106.492613,512.641564 L106.492613,514.271564 L111.142613,514.271564 L111.142613,526.971564 L113.082613,526.971564 Z M121.022613,527.131564 C121.729279,527.131564 122.355946,526.983231 122.902613,526.686564 C123.449279,526.389897 123.942613,525.998231 124.382613,525.511564 L124.382613,525.511564 L124.522613,526.601564 C124.589279,526.848231 124.749279,526.971564 125.002613,526.971564 L125.002613,526.971564 L126.062613,526.971564 L126.062613,516.841564 L124.282613,516.841564 L124.282613,524.311564 C123.895946,524.751564 123.472613,525.094897 123.012613,525.341564 C122.552613,525.588231 122.062613,525.711564 121.542613,525.711564 C120.829279,525.711564 120.295946,525.501564 119.942613,525.081564 C119.589279,524.661564 119.412613,524.068231 119.412613,523.301564 L119.412613,523.301564 L119.412613,516.841564 L117.632613,516.841564 L117.632613,523.301564 C117.632613,523.874897 117.704279,524.398231 117.847613,524.871564 C117.990946,525.344897 118.205946,525.748231 118.492613,526.081564 C118.779279,526.414897 119.134279,526.673231 119.557613,526.856564 C119.980946,527.039897 120.469279,527.131564 121.022613,527.131564 Z M133.102613,527.111564 C133.469279,527.111564 133.839279,527.079897 134.212613,527.016564 C134.585946,526.953231 134.947613,526.858231 135.297613,526.731564 C135.647613,526.604897 135.975946,526.443231 136.282613,526.246564 C136.589279,526.049897 136.852613,525.818231 137.072613,525.551564 L137.072613,525.551564 L136.572613,524.901564 C136.492613,524.788231 136.379279,524.731564 136.232613,524.731564 C136.119279,524.731564 135.984279,524.783231 135.827613,524.886564 C135.670946,524.989897 135.475946,525.101564 135.242613,525.221564 C135.009279,525.341564 134.730946,525.453231 134.407613,525.556564 C134.084279,525.659897 133.699279,525.711564 133.252613,525.711564 C132.772613,525.711564 132.339279,525.633231 131.952613,525.476564 C131.565946,525.319897 131.232613,525.083231 130.952613,524.766564 C130.672613,524.449897 130.452613,524.054897 130.292613,523.581564 C130.132613,523.108231 130.045946,522.551564 130.032613,521.911564 L130.032613,521.911564 L136.772613,521.911564 C136.939279,521.911564 137.052613,521.864897 137.112613,521.771564 C137.172613,521.678231 137.202613,521.491564 137.202613,521.211564 C137.202613,520.491564 137.097613,519.849897 136.887613,519.286564 C136.677613,518.723231 136.385946,518.249897 136.012613,517.866564 C135.639279,517.483231 135.195946,517.189897 134.682613,516.986564 C134.169279,516.783231 133.609279,516.681564 133.002613,516.681564 C132.269279,516.681564 131.609279,516.809897 131.022613,517.066564 C130.435946,517.323231 129.939279,517.676564 129.532613,518.126564 C129.125946,518.576564 128.814279,519.108231 128.597613,519.721564 C128.380946,520.334897 128.272613,520.994897 128.272613,521.701564 C128.272613,522.574897 128.392613,523.348231 128.632613,524.021564 C128.872613,524.694897 129.207613,525.259897 129.637613,525.716564 C130.067613,526.173231 130.577613,526.519897 131.167613,526.756564 C131.757613,526.993231 132.402613,527.111564 133.102613,527.111564 Z M135.602613,520.801564 L130.092613,520.801564 C130.212613,519.921564 130.519279,519.233231 131.012613,518.736564 C131.505946,518.239897 132.182613,517.991564 133.042613,517.991564 C133.449279,517.991564 133.810946,518.059897 134.127613,518.196564 C134.444279,518.333231 134.712613,518.526564 134.932613,518.776564 C135.152613,519.026564 135.319279,519.323231 135.432613,519.666564 C135.545946,520.009897 135.602613,520.388231 135.602613,520.801564 L135.602613,520.801564 Z M142.012613,527.131564 C142.632613,527.131564 143.179279,527.048231 143.652613,526.881564 C144.125946,526.714897 144.525946,526.486564 144.852613,526.196564 C145.179279,525.906564 145.425946,525.563231 145.592613,525.166564 C145.759279,524.769897 145.842613,524.338231 145.842613,523.871564 C145.842613,523.464897 145.767613,523.116564 145.617613,522.826564 C145.467613,522.536564 145.269279,522.291564 145.022613,522.091564 C144.775946,521.891564 144.495946,521.724897 144.182613,521.591564 C143.869279,521.458231 143.547613,521.336564 143.217613,521.226564 C142.887613,521.116564 142.565946,521.013231 142.252613,520.916564 C141.939279,520.819897 141.659279,520.708231 141.412613,520.581564 C141.165946,520.454897 140.967613,520.304897 140.817613,520.131564 C140.667613,519.958231 140.592613,519.741564 140.592613,519.481564 C140.592613,519.274897 140.637613,519.083231 140.727613,518.906564 C140.817613,518.729897 140.947613,518.574897 141.117613,518.441564 C141.287613,518.308231 141.492613,518.203231 141.732613,518.126564 C141.972613,518.049897 142.242613,518.011564 142.542613,518.011564 C142.889279,518.011564 143.189279,518.049897 143.442613,518.126564 C143.695946,518.203231 143.914279,518.286564 144.097613,518.376564 C144.280946,518.466564 144.435946,518.548231 144.562613,518.621564 C144.689279,518.694897 144.802613,518.731564 144.902613,518.731564 C145.069279,518.731564 145.192613,518.658231 145.272613,518.511564 L145.272613,518.511564 L145.672613,517.861564 C145.285946,517.494897 144.827613,517.206564 144.297613,516.996564 C143.767613,516.786564 143.169279,516.681564 142.502613,516.681564 C141.929279,516.681564 141.419279,516.761564 140.972613,516.921564 C140.525946,517.081564 140.149279,517.296564 139.842613,517.566564 C139.535946,517.836564 139.302613,518.149897 139.142613,518.506564 C138.982613,518.863231 138.902613,519.234897 138.902613,519.621564 C138.902613,520.054897 138.977613,520.423231 139.127613,520.726564 C139.277613,521.029897 139.475946,521.284897 139.722613,521.491564 C139.969279,521.698231 140.250946,521.869897 140.567613,522.006564 C140.884279,522.143231 141.207613,522.264897 141.537613,522.371564 C141.867613,522.478231 142.190946,522.579897 142.507613,522.676564 C142.824279,522.773231 143.105946,522.886564 143.352613,523.016564 C143.599279,523.146564 143.797613,523.303231 143.947613,523.486564 C144.097613,523.669897 144.172613,523.901564 144.172613,524.181564 C144.172613,524.408231 144.130946,524.621564 144.047613,524.821564 C143.964279,525.021564 143.835946,525.198231 143.662613,525.351564 C143.489279,525.504897 143.272613,525.626564 143.012613,525.716564 C142.752613,525.806564 142.449279,525.851564 142.102613,525.851564 C141.695946,525.851564 141.357613,525.804897 141.087613,525.711564 C140.817613,525.618231 140.587613,525.514897 140.397613,525.401564 C140.207613,525.288231 140.045946,525.184897 139.912613,525.091564 C139.779279,524.998231 139.652613,524.951564 139.532613,524.951564 C139.412613,524.951564 139.315946,524.974897 139.242613,525.021564 C139.169279,525.068231 139.105946,525.134897 139.052613,525.221564 L139.052613,525.221564 L138.632613,525.901564 C139.032613,526.261564 139.519279,526.556564 140.092613,526.786564 C140.665946,527.016564 141.305946,527.131564 142.012613,527.131564 Z" id="Tues" fill="#8181A5" fill-rule="nonzero"></path>
                    <path d="M206.267117,526.971564 L209.917117,516.041564 C209.95045,515.941564 209.982117,515.829897 210.012117,515.706564 C210.042117,515.583231 210.073784,515.454897 210.107117,515.321564 C210.167117,515.594897 210.233784,515.834897 210.307117,516.041564 L210.307117,516.041564 L213.937117,526.971564 L215.677117,526.971564 L220.147117,512.641564 L218.637117,512.641564 C218.47045,512.641564 218.328784,512.688231 218.212117,512.781564 C218.09545,512.874897 218.02045,512.981564 217.987117,513.101564 L217.987117,513.101564 L215.017117,523.061564 C214.963784,523.234897 214.92045,523.421564 214.887117,523.621564 C214.853784,523.821564 214.817117,524.031564 214.777117,524.251564 C214.683784,523.804897 214.577117,523.408231 214.457117,523.061564 L214.457117,523.061564 L211.107117,513.101564 C211.06045,512.968231 210.982117,512.858231 210.872117,512.771564 C210.762117,512.684897 210.62045,512.641564 210.447117,512.641564 L210.447117,512.641564 L209.887117,512.641564 C209.72045,512.641564 209.578784,512.689897 209.462117,512.786564 C209.34545,512.883231 209.267117,512.988231 209.227117,513.101564 L209.227117,513.101564 L205.857117,523.061564 C205.797117,523.234897 205.743784,523.426564 205.697117,523.636564 C205.65045,523.846564 205.603784,524.064897 205.557117,524.291564 C205.517117,524.064897 205.47545,523.848231 205.432117,523.641564 C205.388784,523.434897 205.34045,523.241564 205.287117,523.061564 L205.287117,523.061564 L202.327117,513.101564 C202.287117,512.968231 202.21045,512.858231 202.097117,512.771564 C201.983784,512.684897 201.84045,512.641564 201.667117,512.641564 L201.667117,512.641564 L200.057117,512.641564 L204.527117,526.971564 L206.267117,526.971564 Z M225.547117,527.111564 C225.913784,527.111564 226.283784,527.079897 226.657117,527.016564 C227.03045,526.953231 227.392117,526.858231 227.742117,526.731564 C228.092117,526.604897 228.42045,526.443231 228.727117,526.246564 C229.033784,526.049897 229.297117,525.818231 229.517117,525.551564 L229.517117,525.551564 L229.017117,524.901564 C228.937117,524.788231 228.823784,524.731564 228.677117,524.731564 C228.563784,524.731564 228.428784,524.783231 228.272117,524.886564 C228.11545,524.989897 227.92045,525.101564 227.687117,525.221564 C227.453784,525.341564 227.17545,525.453231 226.852117,525.556564 C226.528784,525.659897 226.143784,525.711564 225.697117,525.711564 C225.217117,525.711564 224.783784,525.633231 224.397117,525.476564 C224.01045,525.319897 223.677117,525.083231 223.397117,524.766564 C223.117117,524.449897 222.897117,524.054897 222.737117,523.581564 C222.577117,523.108231 222.49045,522.551564 222.477117,521.911564 L222.477117,521.911564 L229.217117,521.911564 C229.383784,521.911564 229.497117,521.864897 229.557117,521.771564 C229.617117,521.678231 229.647117,521.491564 229.647117,521.211564 C229.647117,520.491564 229.542117,519.849897 229.332117,519.286564 C229.122117,518.723231 228.83045,518.249897 228.457117,517.866564 C228.083784,517.483231 227.64045,517.189897 227.127117,516.986564 C226.613784,516.783231 226.053784,516.681564 225.447117,516.681564 C224.713784,516.681564 224.053784,516.809897 223.467117,517.066564 C222.88045,517.323231 222.383784,517.676564 221.977117,518.126564 C221.57045,518.576564 221.258784,519.108231 221.042117,519.721564 C220.82545,520.334897 220.717117,520.994897 220.717117,521.701564 C220.717117,522.574897 220.837117,523.348231 221.077117,524.021564 C221.317117,524.694897 221.652117,525.259897 222.082117,525.716564 C222.512117,526.173231 223.022117,526.519897 223.612117,526.756564 C224.202117,526.993231 224.847117,527.111564 225.547117,527.111564 Z M228.047117,520.801564 L222.537117,520.801564 C222.657117,519.921564 222.963784,519.233231 223.457117,518.736564 C223.95045,518.239897 224.627117,517.991564 225.487117,517.991564 C225.893784,517.991564 226.25545,518.059897 226.572117,518.196564 C226.888784,518.333231 227.157117,518.526564 227.377117,518.776564 C227.597117,519.026564 227.763784,519.323231 227.877117,519.666564 C227.99045,520.009897 228.047117,520.388231 228.047117,520.801564 L228.047117,520.801564 Z M235.007117,527.111564 C235.727117,527.111564 236.36545,526.953231 236.922117,526.636564 C237.478784,526.319897 237.973784,525.898231 238.407117,525.371564 L238.407117,525.371564 L238.567117,526.601564 C238.633784,526.848231 238.793784,526.971564 239.047117,526.971564 L239.047117,526.971564 L240.107117,526.971564 L240.107117,512.241564 L238.327117,512.241564 L238.327117,517.861564 C237.98045,517.481564 237.587117,517.186564 237.147117,516.976564 C236.707117,516.766564 236.177117,516.661564 235.557117,516.661564 C234.87045,516.661564 234.257117,516.796564 233.717117,517.066564 C233.177117,517.336564 232.718784,517.708231 232.342117,518.181564 C231.96545,518.654897 231.677117,519.213231 231.477117,519.856564 C231.277117,520.499897 231.177117,521.194897 231.177117,521.941564 C231.177117,522.781564 231.267117,523.524897 231.447117,524.171564 C231.627117,524.818231 231.883784,525.358231 232.217117,525.791564 C232.55045,526.224897 232.953784,526.553231 233.427117,526.776564 C233.90045,526.999897 234.427117,527.111564 235.007117,527.111564 Z M235.597117,525.671564 C235.183784,525.671564 234.817117,525.601564 234.497117,525.461564 C234.177117,525.321564 233.907117,525.099897 233.687117,524.796564 C233.467117,524.493231 233.30045,524.106564 233.187117,523.636564 C233.073784,523.166564 233.017117,522.601564 233.017117,521.941564 C233.017117,520.694897 233.27045,519.734897 233.777117,519.061564 C234.283784,518.388231 235.01045,518.051564 235.957117,518.051564 C236.43045,518.051564 236.862117,518.139897 237.252117,518.316564 C237.642117,518.493231 238.00045,518.801564 238.327117,519.241564 L238.327117,519.241564 L238.327117,524.141564 C237.96045,524.628231 237.558784,525.004897 237.122117,525.271564 C236.68545,525.538231 236.177117,525.671564 235.597117,525.671564 Z" id="Wed" fill="#8181A5" fill-rule="nonzero"></path>
                    <path d="M299.468198,526.971564 L299.468198,514.271564 L304.098198,514.271564 L304.098198,512.641564 L292.878198,512.641564 L292.878198,514.271564 L297.528198,514.271564 L297.528198,526.971564 L299.468198,526.971564 Z M307.638198,526.971564 L307.638198,519.511564 C308.024865,519.078231 308.446532,518.734897 308.903198,518.481564 C309.359865,518.228231 309.851532,518.101564 310.378198,518.101564 C311.098198,518.101564 311.633198,518.313231 311.983198,518.736564 C312.333198,519.159897 312.508198,519.754897 312.508198,520.521564 L312.508198,520.521564 L312.508198,526.971564 L314.288198,526.971564 L314.288198,520.521564 C314.288198,519.948231 314.214865,519.424897 314.068198,518.951564 C313.921532,518.478231 313.706532,518.073231 313.423198,517.736564 C313.139865,517.399897 312.786532,517.139897 312.363198,516.956564 C311.939865,516.773231 311.451532,516.681564 310.898198,516.681564 C310.211532,516.681564 309.604865,516.819897 309.078198,517.096564 C308.551532,517.373231 308.071532,517.741564 307.638198,518.201564 L307.638198,518.201564 L307.638198,512.241564 L305.858198,512.241564 L305.858198,526.971564 L307.638198,526.971564 Z M320.128198,527.131564 C320.834865,527.131564 321.461532,526.983231 322.008198,526.686564 C322.554865,526.389897 323.048198,525.998231 323.488198,525.511564 L323.488198,525.511564 L323.628198,526.601564 C323.694865,526.848231 323.854865,526.971564 324.108198,526.971564 L324.108198,526.971564 L325.168198,526.971564 L325.168198,516.841564 L323.388198,516.841564 L323.388198,524.311564 C323.001532,524.751564 322.578198,525.094897 322.118198,525.341564 C321.658198,525.588231 321.168198,525.711564 320.648198,525.711564 C319.934865,525.711564 319.401532,525.501564 319.048198,525.081564 C318.694865,524.661564 318.518198,524.068231 318.518198,523.301564 L318.518198,523.301564 L318.518198,516.841564 L316.738198,516.841564 L316.738198,523.301564 C316.738198,523.874897 316.809865,524.398231 316.953198,524.871564 C317.096532,525.344897 317.311532,525.748231 317.598198,526.081564 C317.884865,526.414897 318.239865,526.673231 318.663198,526.856564 C319.086532,527.039897 319.574865,527.131564 320.128198,527.131564 Z M329.878198,526.971564 L329.878198,520.521564 C330.158198,519.834897 330.506532,519.311564 330.923198,518.951564 C331.339865,518.591564 331.858198,518.411564 332.478198,518.411564 C332.824865,518.411564 333.094865,518.443231 333.288198,518.506564 C333.481532,518.569897 333.624865,518.601564 333.718198,518.601564 C333.878198,518.601564 333.981532,518.518231 334.028198,518.351564 L334.028198,518.351564 L334.258198,517.021564 C334.064865,516.908231 333.854865,516.819897 333.628198,516.756564 C333.401532,516.693231 333.148198,516.661564 332.868198,516.661564 C332.181532,516.661564 331.583198,516.859897 331.073198,517.256564 C330.563198,517.653231 330.134865,518.204897 329.788198,518.911564 L329.788198,518.911564 L329.668198,517.331564 C329.641532,517.151564 329.591532,517.024897 329.518198,516.951564 C329.444865,516.878231 329.311532,516.841564 329.118198,516.841564 L329.118198,516.841564 L328.098198,516.841564 L328.098198,526.971564 L329.878198,526.971564 Z M338.698198,527.131564 C339.318198,527.131564 339.864865,527.048231 340.338198,526.881564 C340.811532,526.714897 341.211532,526.486564 341.538198,526.196564 C341.864865,525.906564 342.111532,525.563231 342.278198,525.166564 C342.444865,524.769897 342.528198,524.338231 342.528198,523.871564 C342.528198,523.464897 342.453198,523.116564 342.303198,522.826564 C342.153198,522.536564 341.954865,522.291564 341.708198,522.091564 C341.461532,521.891564 341.181532,521.724897 340.868198,521.591564 C340.554865,521.458231 340.233198,521.336564 339.903198,521.226564 C339.573198,521.116564 339.251532,521.013231 338.938198,520.916564 C338.624865,520.819897 338.344865,520.708231 338.098198,520.581564 C337.851532,520.454897 337.653198,520.304897 337.503198,520.131564 C337.353198,519.958231 337.278198,519.741564 337.278198,519.481564 C337.278198,519.274897 337.323198,519.083231 337.413198,518.906564 C337.503198,518.729897 337.633198,518.574897 337.803198,518.441564 C337.973198,518.308231 338.178198,518.203231 338.418198,518.126564 C338.658198,518.049897 338.928198,518.011564 339.228198,518.011564 C339.574865,518.011564 339.874865,518.049897 340.128198,518.126564 C340.381532,518.203231 340.599865,518.286564 340.783198,518.376564 C340.966532,518.466564 341.121532,518.548231 341.248198,518.621564 C341.374865,518.694897 341.488198,518.731564 341.588198,518.731564 C341.754865,518.731564 341.878198,518.658231 341.958198,518.511564 L341.958198,518.511564 L342.358198,517.861564 C341.971532,517.494897 341.513198,517.206564 340.983198,516.996564 C340.453198,516.786564 339.854865,516.681564 339.188198,516.681564 C338.614865,516.681564 338.104865,516.761564 337.658198,516.921564 C337.211532,517.081564 336.834865,517.296564 336.528198,517.566564 C336.221532,517.836564 335.988198,518.149897 335.828198,518.506564 C335.668198,518.863231 335.588198,519.234897 335.588198,519.621564 C335.588198,520.054897 335.663198,520.423231 335.813198,520.726564 C335.963198,521.029897 336.161532,521.284897 336.408198,521.491564 C336.654865,521.698231 336.936532,521.869897 337.253198,522.006564 C337.569865,522.143231 337.893198,522.264897 338.223198,522.371564 C338.553198,522.478231 338.876532,522.579897 339.193198,522.676564 C339.509865,522.773231 339.791532,522.886564 340.038198,523.016564 C340.284865,523.146564 340.483198,523.303231 340.633198,523.486564 C340.783198,523.669897 340.858198,523.901564 340.858198,524.181564 C340.858198,524.408231 340.816532,524.621564 340.733198,524.821564 C340.649865,525.021564 340.521532,525.198231 340.348198,525.351564 C340.174865,525.504897 339.958198,525.626564 339.698198,525.716564 C339.438198,525.806564 339.134865,525.851564 338.788198,525.851564 C338.381532,525.851564 338.043198,525.804897 337.773198,525.711564 C337.503198,525.618231 337.273198,525.514897 337.083198,525.401564 C336.893198,525.288231 336.731532,525.184897 336.598198,525.091564 C336.464865,524.998231 336.338198,524.951564 336.218198,524.951564 C336.098198,524.951564 336.001532,524.974897 335.928198,525.021564 C335.854865,525.068231 335.791532,525.134897 335.738198,525.221564 L335.738198,525.221564 L335.318198,525.901564 C335.718198,526.261564 336.204865,526.556564 336.778198,526.786564 C337.351532,527.016564 337.991532,527.131564 338.698198,527.131564 Z" id="Thurs" fill="#8181A5" fill-rule="nonzero"></path>
                    <path d="M409.325856,527.131564 C410.085856,527.131564 410.764189,527.014897 411.360856,526.781564 C411.957523,526.548231 412.460856,526.228231 412.870856,525.821564 C413.280856,525.414897 413.592523,524.936564 413.805856,524.386564 C414.019189,523.836564 414.125856,523.248231 414.125856,522.621564 C414.125856,522.028231 414.027523,521.528231 413.830856,521.121564 C413.634189,520.714897 413.374189,520.371564 413.050856,520.091564 C412.727523,519.811564 412.360856,519.579897 411.950856,519.396564 C411.540856,519.213231 411.120856,519.048231 410.690856,518.901564 C410.260856,518.754897 409.840856,518.613231 409.430856,518.476564 C409.020856,518.339897 408.654189,518.178231 408.330856,517.991564 C408.007523,517.804897 407.747523,517.579897 407.550856,517.316564 C407.354189,517.053231 407.255856,516.721564 407.255856,516.321564 C407.255856,516.008231 407.312523,515.716564 407.425856,515.446564 C407.539189,515.176564 407.707523,514.941564 407.930856,514.741564 C408.154189,514.541564 408.432523,514.383231 408.765856,514.266564 C409.099189,514.149897 409.482523,514.091564 409.915856,514.091564 C410.375856,514.091564 410.767523,514.148231 411.090856,514.261564 C411.414189,514.374897 411.690856,514.499897 411.920856,514.636564 C412.150856,514.773231 412.340856,514.898231 412.490856,515.011564 C412.640856,515.124897 412.772523,515.181564 412.885856,515.181564 C412.992523,515.181564 413.079189,515.156564 413.145856,515.106564 C413.212523,515.056564 413.275856,514.981564 413.335856,514.881564 L413.335856,514.881564 L413.805856,513.961564 C413.312523,513.481564 412.735856,513.114897 412.075856,512.861564 C411.415856,512.608231 410.685856,512.481564 409.885856,512.481564 C409.172523,512.481564 408.540856,512.591564 407.990856,512.811564 C407.440856,513.031564 406.979189,513.324897 406.605856,513.691564 C406.232523,514.058231 405.947523,514.478231 405.750856,514.951564 C405.554189,515.424897 405.455856,515.914897 405.455856,516.421564 C405.455856,517.054897 405.554189,517.586564 405.750856,518.016564 C405.947523,518.446564 406.205856,518.804897 406.525856,519.091564 C406.845856,519.378231 407.210856,519.611564 407.620856,519.791564 C408.030856,519.971564 408.450856,520.129897 408.880856,520.266564 C409.310856,520.403231 409.730856,520.536564 410.140856,520.666564 C410.550856,520.796564 410.915856,520.954897 411.235856,521.141564 C411.555856,521.328231 411.814189,521.559897 412.010856,521.836564 C412.207523,522.113231 412.305856,522.468231 412.305856,522.901564 C412.305856,523.294897 412.239189,523.651564 412.105856,523.971564 C411.972523,524.291564 411.780856,524.566564 411.530856,524.796564 C411.280856,525.026564 410.975856,525.204897 410.615856,525.331564 C410.255856,525.458231 409.845856,525.521564 409.385856,525.521564 C408.832523,525.521564 408.364189,525.446564 407.980856,525.296564 C407.597523,525.146564 407.270856,524.981564 407.000856,524.801564 C406.730856,524.621564 406.505856,524.456564 406.325856,524.306564 C406.145856,524.156564 405.985856,524.081564 405.845856,524.081564 C405.752523,524.081564 405.667523,524.106564 405.590856,524.156564 C405.514189,524.206564 405.449189,524.268231 405.395856,524.341564 L405.395856,524.341564 L404.835856,525.261564 C405.375856,525.834897 406.027523,526.289897 406.790856,526.626564 C407.554189,526.963231 408.399189,527.131564 409.325856,527.131564 Z M418.605856,527.131564 C418.992523,527.131564 419.344189,527.098231 419.660856,527.031564 C419.977523,526.964897 420.275856,526.866564 420.555856,526.736564 C420.835856,526.606564 421.102523,526.446564 421.355856,526.256564 C421.609189,526.066564 421.869189,525.851564 422.135856,525.611564 L422.135856,525.611564 L422.335856,526.551564 C422.369189,526.724897 422.439189,526.838231 422.545856,526.891564 C422.652523,526.944897 422.792523,526.971564 422.965856,526.971564 L422.965856,526.971564 L423.755856,526.971564 L423.755856,520.491564 C423.755856,519.924897 423.679189,519.404897 423.525856,518.931564 C423.372523,518.458231 423.145856,518.054897 422.845856,517.721564 C422.545856,517.388231 422.175856,517.128231 421.735856,516.941564 C421.295856,516.754897 420.792523,516.661564 420.225856,516.661564 C419.439189,516.661564 418.722523,516.794897 418.075856,517.061564 C417.429189,517.328231 416.825856,517.731564 416.265856,518.271564 L416.265856,518.271564 L416.585856,518.841564 C416.639189,518.934897 416.710856,519.013231 416.800856,519.076564 C416.890856,519.139897 416.995856,519.171564 417.115856,519.171564 C417.269189,519.171564 417.424189,519.116564 417.580856,519.006564 C417.737523,518.896564 417.924189,518.773231 418.140856,518.636564 C418.357523,518.499897 418.614189,518.376564 418.910856,518.266564 C419.207523,518.156564 419.572523,518.101564 420.005856,518.101564 C420.665856,518.101564 421.164189,518.303231 421.500856,518.706564 C421.837523,519.109897 422.005856,519.704897 422.005856,520.491564 L422.005856,520.491564 L422.005856,521.281564 C420.859189,521.308231 419.889189,521.413231 419.095856,521.596564 C418.302523,521.779897 417.660856,522.014897 417.170856,522.301564 C416.680856,522.588231 416.325856,522.916564 416.105856,523.286564 C415.885856,523.656564 415.775856,524.041564 415.775856,524.441564 C415.775856,524.901564 415.850856,525.299897 416.000856,525.636564 C416.150856,525.973231 416.352523,526.251564 416.605856,526.471564 C416.859189,526.691564 417.157523,526.856564 417.500856,526.966564 C417.844189,527.076564 418.212523,527.131564 418.605856,527.131564 Z M419.135856,525.881564 C418.902523,525.881564 418.685856,525.853231 418.485856,525.796564 C418.285856,525.739897 418.112523,525.649897 417.965856,525.526564 C417.819189,525.403231 417.702523,525.244897 417.615856,525.051564 C417.529189,524.858231 417.485856,524.628231 417.485856,524.361564 C417.485856,524.081564 417.567523,523.828231 417.730856,523.601564 C417.894189,523.374897 418.155856,523.178231 418.515856,523.011564 C418.875856,522.844897 419.342523,522.709897 419.915856,522.606564 C420.489189,522.503231 421.185856,522.438231 422.005856,522.411564 L422.005856,522.411564 L422.005856,524.521564 C421.805856,524.734897 421.600856,524.924897 421.390856,525.091564 C421.180856,525.258231 420.960856,525.399897 420.730856,525.516564 C420.500856,525.633231 420.255856,525.723231 419.995856,525.786564 C419.735856,525.849897 419.449189,525.881564 419.135856,525.881564 Z M429.525856,527.131564 C429.985856,527.131564 430.432523,527.049897 430.865856,526.886564 C431.299189,526.723231 431.669189,526.498231 431.975856,526.211564 L431.975856,526.211564 L431.455856,525.361564 C431.382523,525.248231 431.299189,525.191564 431.205856,525.191564 C431.152523,525.191564 431.090856,525.216564 431.020856,525.266564 C430.950856,525.316564 430.865856,525.371564 430.765856,525.431564 C430.665856,525.491564 430.547523,525.546564 430.410856,525.596564 C430.274189,525.646564 430.112523,525.671564 429.925856,525.671564 C429.599189,525.671564 429.332523,525.568231 429.125856,525.361564 C428.919189,525.154897 428.815856,524.838231 428.815856,524.411564 L428.815856,524.411564 L428.815856,518.331564 L431.715856,518.331564 L431.715856,517.041564 L428.815856,517.041564 L428.815856,513.551564 L427.915856,513.551564 C427.802523,513.551564 427.709189,513.583231 427.635856,513.646564 C427.562523,513.709897 427.519189,513.791564 427.505856,513.891564 L427.505856,513.891564 L427.095856,517.021564 L425.435856,517.231564 L425.435856,517.941564 C425.435856,518.074897 425.472523,518.173231 425.545856,518.236564 C425.619189,518.299897 425.709189,518.331564 425.815856,518.331564 L425.815856,518.331564 L427.035856,518.331564 L427.035856,524.531564 C427.035856,525.371564 427.250856,526.014897 427.680856,526.461564 C428.110856,526.908231 428.725856,527.131564 429.525856,527.131564 Z" id="Sat" fill="#8181A5" fill-rule="nonzero"></path>
                    <path d="M501.124054,527.131564 C501.884054,527.131564 502.562387,527.014897 503.159054,526.781564 C503.755721,526.548231 504.259054,526.228231 504.669054,525.821564 C505.079054,525.414897 505.390721,524.936564 505.604054,524.386564 C505.817387,523.836564 505.924054,523.248231 505.924054,522.621564 C505.924054,522.028231 505.825721,521.528231 505.629054,521.121564 C505.432387,520.714897 505.172387,520.371564 504.849054,520.091564 C504.525721,519.811564 504.159054,519.579897 503.749054,519.396564 C503.339054,519.213231 502.919054,519.048231 502.489054,518.901564 C502.059054,518.754897 501.639054,518.613231 501.229054,518.476564 C500.819054,518.339897 500.452387,518.178231 500.129054,517.991564 C499.805721,517.804897 499.545721,517.579897 499.349054,517.316564 C499.152387,517.053231 499.054054,516.721564 499.054054,516.321564 C499.054054,516.008231 499.110721,515.716564 499.224054,515.446564 C499.337387,515.176564 499.505721,514.941564 499.729054,514.741564 C499.952387,514.541564 500.230721,514.383231 500.564054,514.266564 C500.897387,514.149897 501.280721,514.091564 501.714054,514.091564 C502.174054,514.091564 502.565721,514.148231 502.889054,514.261564 C503.212387,514.374897 503.489054,514.499897 503.719054,514.636564 C503.949054,514.773231 504.139054,514.898231 504.289054,515.011564 C504.439054,515.124897 504.570721,515.181564 504.684054,515.181564 C504.790721,515.181564 504.877387,515.156564 504.944054,515.106564 C505.010721,515.056564 505.074054,514.981564 505.134054,514.881564 L505.134054,514.881564 L505.604054,513.961564 C505.110721,513.481564 504.534054,513.114897 503.874054,512.861564 C503.214054,512.608231 502.484054,512.481564 501.684054,512.481564 C500.970721,512.481564 500.339054,512.591564 499.789054,512.811564 C499.239054,513.031564 498.777387,513.324897 498.404054,513.691564 C498.030721,514.058231 497.745721,514.478231 497.549054,514.951564 C497.352387,515.424897 497.254054,515.914897 497.254054,516.421564 C497.254054,517.054897 497.352387,517.586564 497.549054,518.016564 C497.745721,518.446564 498.004054,518.804897 498.324054,519.091564 C498.644054,519.378231 499.009054,519.611564 499.419054,519.791564 C499.829054,519.971564 500.249054,520.129897 500.679054,520.266564 C501.109054,520.403231 501.529054,520.536564 501.939054,520.666564 C502.349054,520.796564 502.714054,520.954897 503.034054,521.141564 C503.354054,521.328231 503.612387,521.559897 503.809054,521.836564 C504.005721,522.113231 504.104054,522.468231 504.104054,522.901564 C504.104054,523.294897 504.037387,523.651564 503.904054,523.971564 C503.770721,524.291564 503.579054,524.566564 503.329054,524.796564 C503.079054,525.026564 502.774054,525.204897 502.414054,525.331564 C502.054054,525.458231 501.644054,525.521564 501.184054,525.521564 C500.630721,525.521564 500.162387,525.446564 499.779054,525.296564 C499.395721,525.146564 499.069054,524.981564 498.799054,524.801564 C498.529054,524.621564 498.304054,524.456564 498.124054,524.306564 C497.944054,524.156564 497.784054,524.081564 497.644054,524.081564 C497.550721,524.081564 497.465721,524.106564 497.389054,524.156564 C497.312387,524.206564 497.247387,524.268231 497.194054,524.341564 L497.194054,524.341564 L496.634054,525.261564 C497.174054,525.834897 497.825721,526.289897 498.589054,526.626564 C499.352387,526.963231 500.197387,527.131564 501.124054,527.131564 Z M511.264054,527.131564 C511.970721,527.131564 512.597387,526.983231 513.144054,526.686564 C513.690721,526.389897 514.184054,525.998231 514.624054,525.511564 L514.624054,525.511564 L514.764054,526.601564 C514.830721,526.848231 514.990721,526.971564 515.244054,526.971564 L515.244054,526.971564 L516.304054,526.971564 L516.304054,516.841564 L514.524054,516.841564 L514.524054,524.311564 C514.137387,524.751564 513.714054,525.094897 513.254054,525.341564 C512.794054,525.588231 512.304054,525.711564 511.784054,525.711564 C511.070721,525.711564 510.537387,525.501564 510.184054,525.081564 C509.830721,524.661564 509.654054,524.068231 509.654054,523.301564 L509.654054,523.301564 L509.654054,516.841564 L507.874054,516.841564 L507.874054,523.301564 C507.874054,523.874897 507.945721,524.398231 508.089054,524.871564 C508.232387,525.344897 508.447387,525.748231 508.734054,526.081564 C509.020721,526.414897 509.375721,526.673231 509.799054,526.856564 C510.222387,527.039897 510.710721,527.131564 511.264054,527.131564 Z M521.014054,526.971564 L521.014054,519.511564 C521.400721,519.078231 521.822387,518.734897 522.279054,518.481564 C522.735721,518.228231 523.227387,518.101564 523.754054,518.101564 C524.474054,518.101564 525.009054,518.313231 525.359054,518.736564 C525.709054,519.159897 525.884054,519.754897 525.884054,520.521564 L525.884054,520.521564 L525.884054,526.971564 L527.664054,526.971564 L527.664054,520.521564 C527.664054,519.948231 527.590721,519.424897 527.444054,518.951564 C527.297387,518.478231 527.082387,518.073231 526.799054,517.736564 C526.515721,517.399897 526.162387,517.139897 525.739054,516.956564 C525.315721,516.773231 524.827387,516.681564 524.274054,516.681564 C523.560721,516.681564 522.932387,516.831564 522.389054,517.131564 C521.845721,517.431564 521.354054,517.824897 520.914054,518.311564 L520.914054,518.311564 L520.774054,517.211564 C520.707387,516.964897 520.547387,516.841564 520.294054,516.841564 L520.294054,516.841564 L519.234054,516.841564 L519.234054,526.971564 L521.014054,526.971564 Z" id="Sun" fill="#8181A5" fill-rule="nonzero"></path>
                </g>
            </g>
        </g>
    </g>
</svg>