<svg xmlns="http://www.w3.org/2000/svg" width="15.885" height="23.269" viewBox="0 0 15.885 23.269">
  <g id="mic" transform="translate(-74.577)">
    <path id="Path_16" data-name="Path 16" d="M153.806,14.966a4.229,4.229,0,0,0,4.229-4.229V4.229a4.229,4.229,0,1,0-8.458,0v6.508A4.229,4.229,0,0,0,153.806,14.966Z" transform="translate(-71.287)" fill="#002855"/>
    <path id="Path_17" data-name="Path 17" d="M88.234,136.147v1.485h.743v2.511a6.457,6.457,0,1,1-12.914,0v-2.511H76.8v-1.485H74.577v4a7.953,7.953,0,0,0,7.2,7.907v3.139H77.3v1.485H87.74V151.19H83.262v-3.139a7.953,7.953,0,0,0,7.2-7.907v-4H88.234Z" transform="translate(0 -129.407)" fill="#002855"/>
  </g>
</svg>
