<svg xmlns="http://www.w3.org/2000/svg" width="28.433" height="24.307" viewBox="0 0 28.433 24.307">
  <g id="video-mute" transform="translate(-1181.567 -309.236)">
    <g id="video-camera" transform="translate(1184 123.432)">
      <path id="Path_53" data-name="Path 53" d="M54.453,38.5a3.25,3.25,0,1,0-3.25-3.25A3.248,3.248,0,0,0,54.453,38.5Z" transform="translate(-44.693 160.965)" fill="#ff1a46"/>
      <path id="Path_54" data-name="Path 54" d="M214.453,38.5a3.25,3.25,0,1,0-3.25-3.25A3.248,3.248,0,0,0,214.453,38.5Z" transform="translate(-200.021 161.93)" fill="#ff1a46"/>
      <path id="Path_55" data-name="Path 55" d="M25.311,193.868a1.7,1.7,0,0,0-1.622-.071L19.5,195.87v-2.245A1.494,1.494,0,0,0,18.038,192H1.788A1.772,1.772,0,0,0,0,193.625V205a1.772,1.772,0,0,0,1.788,1.625h16.25A1.494,1.494,0,0,0,19.5,205v-2.245l4.23,2.074A1.8,1.8,0,0,0,24.5,205a1.423,1.423,0,0,0,.793-.243A1.571,1.571,0,0,0,26,203.375V195.25A1.555,1.555,0,0,0,25.311,193.868Zm-14.748,3.657a1.463,1.463,0,1,1,1.462-1.463A1.462,1.462,0,0,1,10.563,197.525Zm4.387,0a1.463,1.463,0,1,1,1.463-1.463A1.462,1.462,0,0,1,14.95,197.525Z" fill="#ff1a46"/>
    </g>
    <path id="Path_6262" data-name="Path 6262" d="M-663.114,301.114l23.271,20.777" transform="translate(1846.446 9.887)" fill="none" stroke="#ff1a46" stroke-linecap="round" stroke-width="2.5"/>
  </g>
</svg>
