<svg xmlns="http://www.w3.org/2000/svg" width="26" height="14.625" viewBox="0 0 26 14.625">
  <g id="video-camera" transform="translate(0 -192)">
    <path id="Path_53" data-name="Path 53" d="M54.453,38.5a3.25,3.25,0,1,0-3.25-3.25A3.248,3.248,0,0,0,54.453,38.5Z" transform="translate(-44.693 160.965)" fill="#002855"/>
    <path id="Path_54" data-name="Path 54" d="M214.453,38.5a3.25,3.25,0,1,0-3.25-3.25A3.248,3.248,0,0,0,214.453,38.5Z" transform="translate(-200.021 161.93)" fill="#002855"/>
    <path id="Path_55" data-name="Path 55" d="M25.311,193.868a1.7,1.7,0,0,0-1.622-.071L19.5,195.87v-2.245A1.494,1.494,0,0,0,18.038,192H1.788A1.772,1.772,0,0,0,0,193.625V205a1.772,1.772,0,0,0,1.788,1.625h16.25A1.494,1.494,0,0,0,19.5,205v-2.245l4.23,2.074A1.8,1.8,0,0,0,24.5,205a1.423,1.423,0,0,0,.793-.243A1.571,1.571,0,0,0,26,203.375V195.25A1.555,1.555,0,0,0,25.311,193.868Zm-14.748,3.657a1.463,1.463,0,1,1,1.462-1.463A1.462,1.462,0,0,1,10.563,197.525Zm4.387,0a1.463,1.463,0,1,1,1.463-1.463A1.462,1.462,0,0,1,14.95,197.525Z" fill="#002855"/>
  </g>
</svg>
